  0
SECTION
  2
HEADER
  9
$ACADVER
  1
AC1014
  9
$HANDSEED
  5
FFFF
  9
$MEASUREMENT
 70
     1
  0
ENDSEC
  0
SECTION
  2
TABLES
  0
TABLE
  2
VPORT
  5
8
330
0
100
AcDbSymbolTable
 70
     4
  0
VPORT
  5
2E
330
8
100
AcDbSymbolTableRecord
100
AcDbViewportTableRecord
  2
*ACTIVE
 70
     0
 10
0.0
 20
0.0
 11
1.0
 21
1.0
 12
210.0
 22
148.5
 13
0.0
 23
0.0
 14
10.0
 24
10.0
 15
10.0
 25
10.0
 16
0.0
 26
0.0
 36
1.0
 17
0.0
 27
0.0
 37
0.0
 40
341.0
 41
1.24
 42
50.0
 43
0.0
 44
0.0
 50
0.0
 51
0.0
 71
     0
 72
   100
 73
     1
 74
     3
 75
     0
 76
     0
 77
     0
 78
     0
  0
ENDTAB
  0
TABLE
  2
LTYPE
  5
5
330
0
100
AcDbSymbolTable
 70
     1
  0
LTYPE
  5
14
330
5
100
AcDbSymbolTableRecord
100
AcDbLinetypeTableRecord
  2
BYBLOCK
 70
     0
  3

 72
    65
 73
     0
 40
0.0
  0
LTYPE
  5
15
330
5
100
AcDbSymbolTableRecord
100
AcDbLinetypeTableRecord
  2
BYLAYER
 70
     0
  3

 72
    65
 73
     0
 40
0.0
  0
LTYPE
  5
16
330
5
100
AcDbSymbolTableRecord
100
AcDbLinetypeTableRecord
  2
CONTINUOUS
 70
     0
  3
Solid line
 72
    65
 73
     0
 40
0.0
  0
ENDTAB
  0
TABLE
  2
LAYER
  5
2
100
AcDbSymbolTable
 70
2
  0
LAYER
  5
50
100
AcDbSymbolTableRecord
100
AcDbLayerTableRecord
  2
0
 70
0
  6
CONTINUOUS
  0
LAYER
  5
51
100
AcDbSymbolTableRecord
100
AcDbLayerTableRecord
  2
Layer_1
 70
0
  6
CONTINUOUS
  0
ENDTAB
  0
TABLE
  2
STYLE
  5
3
330
0
100
AcDbSymbolTable
 70
     1
  0
STYLE
  5
11
330
3
100
AcDbSymbolTableRecord
100
AcDbTextStyleTableRecord
  2
STANDARD
 70
     0
 40
0.0
 41
1.0
 50
0.0
 71
     0
 42
2.5
  3
txt
  4

  0
ENDTAB
  0
TABLE
  2
VIEW
  5
6
330
0
100
AcDbSymbolTable
 70
     0
  0
ENDTAB
  0
TABLE
  2
UCS
  5
7
330
0
100
AcDbSymbolTable
 70
     0
  0
ENDTAB
  0
TABLE
  2
APPID
  5
9
330
0
100
AcDbSymbolTable
 70
     2
  0
APPID
  5
12
330
9
100
AcDbSymbolTableRecord
100
AcDbRegAppTableRecord
  2
ACAD
 70
     0
  0
ENDTAB
  0
TABLE
  2
DIMSTYLE
  5
A
330
0
100
AcDbSymbolTable
 70
     1
  0
DIMSTYLE
105
27
330
A
100
AcDbSymbolTableRecord
100
AcDbDimStyleTableRecord
  2
ISO-25
 70
     0
  3

  4

  5

  6

  7

 40
1.0
 41
2.5
 42
0.625
 43
3.75
 44
1.25
 45
0.0
 46
0.0
 47
0.0
 48
0.0
140
2.5
141
2.5
142
0.0
143
0.03937007874016
144
1.0
145
0.0
146
1.0
147
0.625
 71
     0
 72
     0
 73
     0
 74
     0
 75
     0
 76
     0
 77
     1
 78
     8
170
     0
171
     3
172
     1
173
     0
174
     0
175
     0
176
     0
177
     0
178
     0
270
     2
271
     2
272
     2
273
     2
274
     3
340
11
275
     0
280
     0
281
     0
282
     0
283
     0
284
     8
285
     0
286
     0
287
     3
288
     0
  0
ENDTAB
  0
TABLE
  2
BLOCK_RECORD
  5
1
330
0
100
AcDbSymbolTable
 70
     1
  0
BLOCK_RECORD
  5
1F
330
1
100
AcDbSymbolTableRecord
100
AcDbBlockTableRecord
  2
*MODEL_SPACE
  0
BLOCK_RECORD
  5
1B
330
1
100
AcDbSymbolTableRecord
100
AcDbBlockTableRecord
  2
*PAPER_SPACE
  0
ENDTAB
  0
ENDSEC
  0
SECTION
  2
BLOCKS
  0
BLOCK
  5
20
330
1F
100
AcDbEntity
  8
0
100
AcDbBlockBegin
  2
*MODEL_SPACE
 70
     0
 10
0.0
 20
0.0
 30
0.0
  3
*MODEL_SPACE
  1

  0
ENDBLK
  5
21
330
1F
100
AcDbEntity
  8
0
100
AcDbBlockEnd
  0
BLOCK
  5
1C
330
1B
100
AcDbEntity
 67
     1
  8
0
100
AcDbBlockBegin
  2
*PAPER_SPACE
  1

  0
ENDBLK
  5
1D
330
1B
100
AcDbEntity
 67
     1
  8
0
100
AcDbBlockEnd
  0
ENDSEC
  0
SECTION
  2
ENTITIES
  0
LWPOLYLINE
  5
100
100
AcDbEntity
  8
Layer_1
 62
7
100
AcDbPolyline
 90
89
 70
0
 10
8.503870
 20
0.191856
 30
0.0
 10
8.642830
 20
0.526029
 30
0.0
 10
9.230440
 20
1.160606
 30
0.0
 10
10.088124
 20
2.189563
 30
0.0
 10
10.720555
 20
3.376594
 30
0.0
 10
11.111741
 20
4.682751
 30
0.0
 10
11.245690
 20
6.069086
 30
0.0
 10
11.149890
 20
6.772496
 30
0.0
 10
10.726620
 20
6.059026
 30
0.0
 10
10.088969
 20
5.097939
 30
0.0
 10
9.158430
 20
4.269177
 30
0.0
 10
8.022533
 20
3.634720
 30
0.0
 10
6.768810
 20
3.256546
 30
0.0
 10
5.700800
 20
3.178917
 30
0.0
 10
4.646021
 20
3.314368
 30
0.0
 10
3.632843
 20
3.644346
 30
0.0
 10
2.689635
 20
4.150300
 30
0.0
 10
1.844767
 20
4.813676
 30
0.0
 10
1.126609
 20
5.615923
 30
0.0
 10
0.563530
 20
6.538487
 30
0.0
 10
0.183900
 20
7.562816
 30
0.0
 10
0.004849
 20
8.761850
 30
0.0
 10
0.078382
 20
9.940524
 30
0.0
 10
0.384132
 20
11.066256
 30
0.0
 10
0.901732
 20
12.106467
 30
0.0
 10
1.610816
 20
13.028577
 30
0.0
 10
2.491016
 20
13.800003
 30
0.0
 10
3.521966
 20
14.388167
 30
0.0
 10
4.683300
 20
14.760486
 30
0.0
 10
6.107986
 20
14.840124
 30
0.0
 10
7.478830
 20
14.681786
 30
0.0
 10
7.651120
 20
14.701006
 30
0.0
 10
7.320820
 20
15.178446
 30
0.0
 10
6.747825
 20
16.051546
 30
0.0
 10
6.350737
 20
16.948846
 30
0.0
 10
6.120566
 20
17.896786
 30
0.0
 10
6.048320
 20
18.921806
 30
0.0
 10
6.156809
 20
20.127425
 30
0.0
 10
6.478410
 20
21.224167
 30
0.0
 10
7.020826
 20
22.230694
 30
0.0
 10
7.791760
 20
23.165666
 30
0.0
 10
8.748213
 20
23.963352
 30
0.0
 10
9.808922
 20
24.535075
 30
0.0
 10
10.939488
 20
24.880657
 30
0.0
 10
12.105515
 20
24.999921
 30
0.0
 10
13.272605
 20
24.892691
 30
0.0
 10
14.406361
 20
24.558790
 30
0.0
 10
15.472385
 20
23.998041
 30
0.0
 10
16.436280
 20
23.210266
 30
0.0
 10
17.157772
 20
22.347501
 30
0.0
 10
17.694982
 20
21.400447
 30
0.0
 10
18.046428
 20
20.391535
 30
0.0
 10
18.210627
 20
19.343197
 30
0.0
 10
18.186098
 20
18.277868
 30
0.0
 10
17.971357
 20
17.217978
 30
0.0
 10
17.564921
 20
16.185960
 30
0.0
 10
16.965310
 20
15.204246
 30
0.0
 10
16.623316
 20
14.693052
 30
0.0
 10
16.813440
 20
14.682656
 30
0.0
 10
18.174370
 20
14.840939
 30
0.0
 10
19.588700
 20
14.765956
 30
0.0
 10
20.862073
 20
14.331580
 30
0.0
 10
21.999116
 20
13.622385
 30
0.0
 10
22.951751
 20
12.676450
 30
0.0
 10
23.671900
 20
11.531856
 30
0.0
 10
24.068224
 20
10.503470
 30
0.0
 10
24.125450
 20
9.009806
 30
0.0
 10
24.071750
 20
7.539545
 30
0.0
 10
23.733350
 20
6.609726
 30
0.0
 10
23.254972
 20
5.792538
 30
0.0
 10
22.646657
 20
5.062087
 30
0.0
 10
21.134861
 20
3.913489
 30
0.0
 10
19.387260
 20
3.268122
 30
0.0
 10
18.484187
 20
3.166709
 30
0.0
 10
17.593150
 20
3.230176
 30
0.0
 10
16.341483
 20
3.585279
 30
0.0
 10
15.221644
 20
4.179382
 30
0.0
 10
14.292415
 20
4.972687
 30
0.0
 10
13.612580
 20
5.925396
 30
0.0
 10
13.041030
 20
6.700446
 30
0.0
 10
12.998668
 20
5.777156
 30
0.0
 10
13.261360
 20
4.172326
 30
0.0
 10
13.901830
 20
2.611275
 30
0.0
 10
15.035320
 20
1.124706
 30
0.0
 10
15.784040
 20
0.126186
 30
0.0
 10
12.141760
 20
-0.000004
 30
0.0
 10
9.168584
 20
0.032487
 30
0.0
 10
8.503840
 20
0.191826
 30
0.0
 10
8.503870
 20
0.191856
 30
0.0
  0
ENDSEC
  0
SECTION
  2
OBJECTS
  0
DICTIONARY
  5
C
330
0
100
AcDbDictionary
  3
ACAD_GROUP
350
D
  3
ACAD_MLINESTYLE
350
17
  0
DICTIONARY
  5
D
330
C
100
AcDbDictionary
  0
DICTIONARY
  5
1A
330
C
100
AcDbDictionary
  0
DICTIONARY
  5
17
330
C
100
AcDbDictionary
  3
STANDARD
350
18
  0
DICTIONARY
  5
19
330
C
100
AcDbDictionary
  0
ENDSEC
  0
EOF
