  0
SECTION
  2
HEADER
  9
$ACADVER
  1
AC1014
  9
$HANDSEED
  5
FFFF
  9
$MEASUREMENT
 70
     1
  0
ENDSEC
  0
SECTION
  2
TABLES
  0
TABLE
  2
VPORT
  5
8
330
0
100
AcDbSymbolTable
 70
     4
  0
VPORT
  5
2E
330
8
100
AcDbSymbolTableRecord
100
AcDbViewportTableRecord
  2
*ACTIVE
 70
     0
 10
0.0
 20
0.0
 11
1.0
 21
1.0
 12
210.0
 22
148.5
 13
0.0
 23
0.0
 14
10.0
 24
10.0
 15
10.0
 25
10.0
 16
0.0
 26
0.0
 36
1.0
 17
0.0
 27
0.0
 37
0.0
 40
341.0
 41
1.24
 42
50.0
 43
0.0
 44
0.0
 50
0.0
 51
0.0
 71
     0
 72
   100
 73
     1
 74
     3
 75
     0
 76
     0
 77
     0
 78
     0
  0
ENDTAB
  0
TABLE
  2
LTYPE
  5
5
330
0
100
AcDbSymbolTable
 70
     1
  0
LTYPE
  5
14
330
5
100
AcDbSymbolTableRecord
100
AcDbLinetypeTableRecord
  2
BYBLOCK
 70
     0
  3

 72
    65
 73
     0
 40
0.0
  0
LTYPE
  5
15
330
5
100
AcDbSymbolTableRecord
100
AcDbLinetypeTableRecord
  2
BYLAYER
 70
     0
  3

 72
    65
 73
     0
 40
0.0
  0
LTYPE
  5
16
330
5
100
AcDbSymbolTableRecord
100
AcDbLinetypeTableRecord
  2
CONTINUOUS
 70
     0
  3
Solid line
 72
    65
 73
     0
 40
0.0
  0
ENDTAB
  0
TABLE
  2
LAYER
  5
2
100
AcDbSymbolTable
 70
2
  0
LAYER
  5
50
100
AcDbSymbolTableRecord
100
AcDbLayerTableRecord
  2
0
 70
0
  6
CONTINUOUS
  0
LAYER
  5
51
100
AcDbSymbolTableRecord
100
AcDbLayerTableRecord
  2
Layer_1
 70
0
  6
CONTINUOUS
  0
ENDTAB
  0
TABLE
  2
STYLE
  5
3
330
0
100
AcDbSymbolTable
 70
     1
  0
STYLE
  5
11
330
3
100
AcDbSymbolTableRecord
100
AcDbTextStyleTableRecord
  2
STANDARD
 70
     0
 40
0.0
 41
1.0
 50
0.0
 71
     0
 42
2.5
  3
txt
  4

  0
ENDTAB
  0
TABLE
  2
VIEW
  5
6
330
0
100
AcDbSymbolTable
 70
     0
  0
ENDTAB
  0
TABLE
  2
UCS
  5
7
330
0
100
AcDbSymbolTable
 70
     0
  0
ENDTAB
  0
TABLE
  2
APPID
  5
9
330
0
100
AcDbSymbolTable
 70
     2
  0
APPID
  5
12
330
9
100
AcDbSymbolTableRecord
100
AcDbRegAppTableRecord
  2
ACAD
 70
     0
  0
ENDTAB
  0
TABLE
  2
DIMSTYLE
  5
A
330
0
100
AcDbSymbolTable
 70
     1
  0
DIMSTYLE
105
27
330
A
100
AcDbSymbolTableRecord
100
AcDbDimStyleTableRecord
  2
ISO-25
 70
     0
  3

  4

  5

  6

  7

 40
1.0
 41
2.5
 42
0.625
 43
3.75
 44
1.25
 45
0.0
 46
0.0
 47
0.0
 48
0.0
140
2.5
141
2.5
142
0.0
143
0.03937007874016
144
1.0
145
0.0
146
1.0
147
0.625
 71
     0
 72
     0
 73
     0
 74
     0
 75
     0
 76
     0
 77
     1
 78
     8
170
     0
171
     3
172
     1
173
     0
174
     0
175
     0
176
     0
177
     0
178
     0
270
     2
271
     2
272
     2
273
     2
274
     3
340
11
275
     0
280
     0
281
     0
282
     0
283
     0
284
     8
285
     0
286
     0
287
     3
288
     0
  0
ENDTAB
  0
TABLE
  2
BLOCK_RECORD
  5
1
330
0
100
AcDbSymbolTable
 70
     1
  0
BLOCK_RECORD
  5
1F
330
1
100
AcDbSymbolTableRecord
100
AcDbBlockTableRecord
  2
*MODEL_SPACE
  0
BLOCK_RECORD
  5
1B
330
1
100
AcDbSymbolTableRecord
100
AcDbBlockTableRecord
  2
*PAPER_SPACE
  0
ENDTAB
  0
ENDSEC
  0
SECTION
  2
BLOCKS
  0
BLOCK
  5
20
330
1F
100
AcDbEntity
  8
0
100
AcDbBlockBegin
  2
*MODEL_SPACE
 70
     0
 10
0.0
 20
0.0
 30
0.0
  3
*MODEL_SPACE
  1

  0
ENDBLK
  5
21
330
1F
100
AcDbEntity
  8
0
100
AcDbBlockEnd
  0
BLOCK
  5
1C
330
1B
100
AcDbEntity
 67
     1
  8
0
100
AcDbBlockBegin
  2
*PAPER_SPACE
  1

  0
ENDBLK
  5
1D
330
1B
100
AcDbEntity
 67
     1
  8
0
100
AcDbBlockEnd
  0
ENDSEC
  0
SECTION
  2
ENTITIES
  0
LWPOLYLINE
  5
100
100
AcDbEntity
  8
Layer_1
 62
7
100
AcDbPolyline
 90
69
 70
0
 10
11.419560
 20
1.564982
 30
0.0
 10
10.450925
 20
2.875102
 30
0.0
 10
9.504014
 20
4.017764
 30
0.0
 10
5.805740
 20
7.915772
 30
0.0
 10
3.600685
 20
10.239026
 30
0.0
 10
2.176186
 20
11.881155
 30
0.0
 10
1.291479
 20
13.145161
 30
0.0
 10
0.705800
 20
14.334042
 30
0.0
 10
0.354619
 20
15.341508
 30
0.0
 10
0.123476
 20
16.360749
 30
0.0
 10
0.011621
 20
17.380362
 30
0.0
 10
0.018305
 20
18.388946
 30
0.0
 10
0.142779
 20
19.375099
 30
0.0
 10
0.384292
 20
20.327419
 30
0.0
 10
0.742096
 20
21.234504
 30
0.0
 10
1.215440
 20
22.084952
 30
0.0
 10
2.064556
 20
23.131881
 30
0.0
 10
3.102970
 20
23.973697
 30
0.0
 10
4.285039
 20
24.580622
 30
0.0
 10
5.565120
 20
24.922872
 30
0.0
 10
6.498799
 20
24.997894
 30
0.0
 10
7.509030
 20
24.853172
 30
0.0
 10
8.297581
 20
24.657600
 30
0.0
 10
9.011853
 20
24.402445
 30
0.0
 10
9.656918
 20
24.083828
 30
0.0
 10
10.237851
 20
23.697871
 30
0.0
 10
10.759724
 20
23.240696
 30
0.0
 10
11.227609
 20
22.708423
 30
0.0
 10
11.646580
 20
22.097175
 30
0.0
 10
12.021710
 20
21.403072
 30
0.0
 10
12.628750
 20
20.296882
 30
0.0
 10
12.789030
 20
20.623262
 30
0.0
 10
13.019834
 20
21.212345
 30
0.0
 10
13.421192
 20
21.917512
 30
0.0
 10
13.921382
 20
22.626280
 30
0.0
 10
14.448680
 20
23.226162
 30
0.0
 10
15.122680
 20
23.794351
 30
0.0
 10
15.878452
 20
24.248377
 30
0.0
 10
16.735681
 20
24.598049
 30
0.0
 10
17.714050
 20
24.853172
 30
0.0
 10
18.722686
 20
24.997920
 30
0.0
 10
19.648680
 20
24.921372
 30
0.0
 10
20.404575
 20
24.755520
 30
0.0
 10
21.125661
 20
24.500827
 30
0.0
 10
21.805853
 20
24.161870
 30
0.0
 10
22.439065
 20
23.743225
 30
0.0
 10
23.019211
 20
23.249468
 30
0.0
 10
23.540204
 20
22.685176
 30
0.0
 10
23.995959
 20
22.054925
 30
0.0
 10
24.380390
 20
21.363292
 30
0.0
 10
24.760670
 20
20.455117
 30
0.0
 10
25.028144
 20
19.544112
 30
0.0
 10
25.182764
 20
18.627378
 30
0.0
 10
25.224486
 20
17.702011
 30
0.0
 10
25.153265
 20
16.765111
 30
0.0
 10
24.969053
 20
15.813776
 30
0.0
 10
24.671807
 20
14.845103
 30
0.0
 10
24.261480
 20
13.856192
 30
0.0
 10
23.681022
 20
12.782132
 30
0.0
 10
22.873671
 20
11.661381
 30
0.0
 10
21.671132
 20
10.284834
 30
0.0
 10
19.905110
 20
8.443382
 30
0.0
 10
17.303094
 20
5.761740
 30
0.0
 10
15.557337
 20
3.862481
 30
0.0
 10
14.320205
 20
2.347723
 30
0.0
 10
13.244060
 20
0.819582
 30
0.0
 10
12.624090
 20
0.000002
 30
0.0
 10
11.419560
 20
1.565002
 30
0.0
 10
11.419560
 20
1.564982
 30
0.0
  0
ENDSEC
  0
SECTION
  2
OBJECTS
  0
DICTIONARY
  5
C
330
0
100
AcDbDictionary
  3
ACAD_GROUP
350
D
  3
ACAD_MLINESTYLE
350
17
  0
DICTIONARY
  5
D
330
C
100
AcDbDictionary
  0
DICTIONARY
  5
1A
330
C
100
AcDbDictionary
  0
DICTIONARY
  5
17
330
C
100
AcDbDictionary
  3
STANDARD
350
18
  0
DICTIONARY
  5
19
330
C
100
AcDbDictionary
  0
ENDSEC
  0
EOF
