  0
SECTION
  2
HEADER
  9
$ACADVER
  1
AC1014
  9
$HANDSEED
  5
FFFF
  9
$MEASUREMENT
 70
     1
  0
ENDSEC
  0
SECTION
  2
TABLES
  0
TABLE
  2
VPORT
  5
8
330
0
100
AcDbSymbolTable
 70
     4
  0
VPORT
  5
2E
330
8
100
AcDbSymbolTableRecord
100
AcDbViewportTableRecord
  2
*ACTIVE
 70
     0
 10
0.0
 20
0.0
 11
1.0
 21
1.0
 12
210.0
 22
148.5
 13
0.0
 23
0.0
 14
10.0
 24
10.0
 15
10.0
 25
10.0
 16
0.0
 26
0.0
 36
1.0
 17
0.0
 27
0.0
 37
0.0
 40
341.0
 41
1.24
 42
50.0
 43
0.0
 44
0.0
 50
0.0
 51
0.0
 71
     0
 72
   100
 73
     1
 74
     3
 75
     0
 76
     0
 77
     0
 78
     0
  0
ENDTAB
  0
TABLE
  2
LTYPE
  5
5
330
0
100
AcDbSymbolTable
 70
     1
  0
LTYPE
  5
14
330
5
100
AcDbSymbolTableRecord
100
AcDbLinetypeTableRecord
  2
BYBLOCK
 70
     0
  3

 72
    65
 73
     0
 40
0.0
  0
LTYPE
  5
15
330
5
100
AcDbSymbolTableRecord
100
AcDbLinetypeTableRecord
  2
BYLAYER
 70
     0
  3

 72
    65
 73
     0
 40
0.0
  0
LTYPE
  5
16
330
5
100
AcDbSymbolTableRecord
100
AcDbLinetypeTableRecord
  2
CONTINUOUS
 70
     0
  3
Solid line
 72
    65
 73
     0
 40
0.0
  0
ENDTAB
  0
TABLE
  2
LAYER
  5
2
100
AcDbSymbolTable
 70
2
  0
LAYER
  5
50
100
AcDbSymbolTableRecord
100
AcDbLayerTableRecord
  2
0
 70
0
  6
CONTINUOUS
  0
LAYER
  5
51
100
AcDbSymbolTableRecord
100
AcDbLayerTableRecord
  2
Layer_1
 70
0
  6
CONTINUOUS
  0
ENDTAB
  0
TABLE
  2
STYLE
  5
3
330
0
100
AcDbSymbolTable
 70
     1
  0
STYLE
  5
11
330
3
100
AcDbSymbolTableRecord
100
AcDbTextStyleTableRecord
  2
STANDARD
 70
     0
 40
0.0
 41
1.0
 50
0.0
 71
     0
 42
2.5
  3
txt
  4

  0
ENDTAB
  0
TABLE
  2
VIEW
  5
6
330
0
100
AcDbSymbolTable
 70
     0
  0
ENDTAB
  0
TABLE
  2
UCS
  5
7
330
0
100
AcDbSymbolTable
 70
     0
  0
ENDTAB
  0
TABLE
  2
APPID
  5
9
330
0
100
AcDbSymbolTable
 70
     2
  0
APPID
  5
12
330
9
100
AcDbSymbolTableRecord
100
AcDbRegAppTableRecord
  2
ACAD
 70
     0
  0
ENDTAB
  0
TABLE
  2
DIMSTYLE
  5
A
330
0
100
AcDbSymbolTable
 70
     1
  0
DIMSTYLE
105
27
330
A
100
AcDbSymbolTableRecord
100
AcDbDimStyleTableRecord
  2
ISO-25
 70
     0
  3

  4

  5

  6

  7

 40
1.0
 41
2.5
 42
0.625
 43
3.75
 44
1.25
 45
0.0
 46
0.0
 47
0.0
 48
0.0
140
2.5
141
2.5
142
0.0
143
0.03937007874016
144
1.0
145
0.0
146
1.0
147
0.625
 71
     0
 72
     0
 73
     0
 74
     0
 75
     0
 76
     0
 77
     1
 78
     8
170
     0
171
     3
172
     1
173
     0
174
     0
175
     0
176
     0
177
     0
178
     0
270
     2
271
     2
272
     2
273
     2
274
     3
340
11
275
     0
280
     0
281
     0
282
     0
283
     0
284
     8
285
     0
286
     0
287
     3
288
     0
  0
ENDTAB
  0
TABLE
  2
BLOCK_RECORD
  5
1
330
0
100
AcDbSymbolTable
 70
     1
  0
BLOCK_RECORD
  5
1F
330
1
100
AcDbSymbolTableRecord
100
AcDbBlockTableRecord
  2
*MODEL_SPACE
  0
BLOCK_RECORD
  5
1B
330
1
100
AcDbSymbolTableRecord
100
AcDbBlockTableRecord
  2
*PAPER_SPACE
  0
ENDTAB
  0
ENDSEC
  0
SECTION
  2
BLOCKS
  0
BLOCK
  5
20
330
1F
100
AcDbEntity
  8
0
100
AcDbBlockBegin
  2
*MODEL_SPACE
 70
     0
 10
0.0
 20
0.0
 30
0.0
  3
*MODEL_SPACE
  1

  0
ENDBLK
  5
21
330
1F
100
AcDbEntity
  8
0
100
AcDbBlockEnd
  0
BLOCK
  5
1C
330
1B
100
AcDbEntity
 67
     1
  8
0
100
AcDbBlockBegin
  2
*PAPER_SPACE
  1

  0
ENDBLK
  5
1D
330
1B
100
AcDbEntity
 67
     1
  8
0
100
AcDbBlockEnd
  0
ENDSEC
  0
SECTION
  2
ENTITIES
  0
LWPOLYLINE
  5
100
100
AcDbEntity
  8
Layer_1
 62
7
100
AcDbPolyline
 90
62
 70
0
 10
7.860680
 20
0.179901
 30
0.0
 10
8.695890
 20
1.259461
 30
0.0
 10
9.551956
 20
2.330120
 30
0.0
 10
10.164525
 20
3.482512
 30
0.0
 10
10.532714
 20
4.714489
 30
0.0
 10
10.655640
 20
6.023901
 30
0.0
 10
10.564540
 20
6.908501
 30
0.0
 10
10.139250
 20
6.189001
 30
0.0
 10
9.229666
 20
4.912923
 30
0.0
 10
7.929221
 20
3.988972
 30
0.0
 10
6.388628
 20
3.492501
 30
0.0
 10
4.758600
 20
3.498861
 30
0.0
 10
3.250180
 20
3.970491
 30
0.0
 10
2.529229
 20
4.433227
 30
0.0
 10
1.781249
 20
5.098434
 30
0.0
 10
0.652030
 20
6.585521
 30
0.0
 10
0.186967
 20
7.864980
 30
0.0
 10
0.003420
 20
9.189774
 30
0.0
 10
0.098692
 20
10.552448
 30
0.0
 10
0.470087
 20
11.945549
 30
0.0
 10
1.114909
 20
13.361623
 30
0.0
 10
2.030462
 20
14.793217
 30
0.0
 10
3.214047
 20
16.232878
 30
0.0
 10
4.662970
 20
17.673151
 30
0.0
 10
7.993404
 20
20.900989
 30
0.0
 10
10.412640
 20
23.545881
 30
0.0
 10
11.500115
 20
24.907747
 30
0.0
 10
11.656921
 20
24.996815
 30
0.0
 10
11.745760
 20
24.881671
 30
0.0
 10
12.925950
 20
23.362671
 30
0.0
 10
15.143196
 20
20.894497
 30
0.0
 10
18.007670
 20
18.151261
 30
0.0
 10
19.510930
 20
16.720975
 30
0.0
 10
20.696319
 20
15.400390
 30
0.0
 10
21.637183
 20
14.099063
 30
0.0
 10
22.406870
 20
12.726551
 30
0.0
 10
22.976861
 20
11.137369
 30
0.0
 10
23.170164
 20
9.501450
 30
0.0
 10
22.986545
 20
7.898784
 30
0.0
 10
22.425770
 20
6.409361
 30
0.0
 10
21.280225
 20
4.979242
 30
0.0
 10
19.847310
 20
3.924581
 30
0.0
 10
18.873946
 20
3.587715
 30
0.0
 10
17.880105
 20
3.444207
 30
0.0
 10
16.894112
 20
3.484845
 30
0.0
 10
15.944290
 20
3.700417
 30
0.0
 10
15.058962
 20
4.081712
 30
0.0
 10
14.266452
 20
4.619518
 30
0.0
 10
13.595084
 20
5.304621
 30
0.0
 10
13.073180
 20
6.127811
 30
0.0
 10
12.565180
 20
6.909771
 30
0.0
 10
12.524659
 20
5.782254
 30
0.0
 10
12.835790
 20
3.985091
 30
0.0
 10
13.558614
 20
2.415774
 30
0.0
 10
14.676410
 20
1.038081
 30
0.0
 10
15.361920
 20
0.187431
 30
0.0
 10
14.486538
 20
0.068932
 30
0.0
 10
11.587430
 20
0.011731
 30
0.0
 10
8.451508
 20
0.016440
 30
0.0
 10
7.965838
 20
0.072567
 30
0.0
 10
7.860770
 20
0.179901
 30
0.0
 10
7.860680
 20
0.179901
 30
0.0
  0
ENDSEC
  0
SECTION
  2
OBJECTS
  0
DICTIONARY
  5
C
330
0
100
AcDbDictionary
  3
ACAD_GROUP
350
D
  3
ACAD_MLINESTYLE
350
17
  0
DICTIONARY
  5
D
330
C
100
AcDbDictionary
  0
DICTIONARY
  5
1A
330
C
100
AcDbDictionary
  0
DICTIONARY
  5
17
330
C
100
AcDbDictionary
  3
STANDARD
350
18
  0
DICTIONARY
  5
19
330
C
100
AcDbDictionary
  0
ENDSEC
  0
EOF
